<?xml version="1.0" encoding="UTF-8" standalone="no"?>
<!-- Created with Inkscape (http://www.inkscape.org/) -->
<svg
   xmlns:dc="http://purl.org/dc/elements/1.1/"
   xmlns:cc="http://web.resource.org/cc/"
   xmlns:rdf="http://www.w3.org/1999/02/22-rdf-syntax-ns#"
   xmlns:svg="http://www.w3.org/2000/svg"
   xmlns="http://www.w3.org/2000/svg"
   xmlns:sodipodi="http://inkscape.sourceforge.net/DTD/sodipodi-0.dtd"
   xmlns:inkscape="http://www.inkscape.org/namespaces/inkscape"
   version="1.0"
   width="120pt"
   height="90pt"
   id="svg1454"
   sodipodi:version="0.32"
   inkscape:version="0.43+devel"
   sodipodi:docname="Triangle.Right.svg"
   sodipodi:docbase="C:\Documents and Settings\Jeremy Cushman\My Documents\My Pictures\Wikipedia Files">
  <metadata
     id="metadata3595">
    <rdf:RDF>
      <cc:Work
         rdf:about="">
        <dc:format>image/svg+xml</dc:format>
        <dc:type
           rdf:resource="http://purl.org/dc/dcmitype/StillImage" />
      </cc:Work>
    </rdf:RDF>
  </metadata>
  <sodipodi:namedview
     inkscape:window-height="541"
     inkscape:window-width="756"
     inkscape:pageshadow="2"
     inkscape:pageopacity="0.0"
     borderopacity="1.0"
     bordercolor="#666666"
     pagecolor="#ffffff"
     id="base"
     inkscape:zoom="4"
     inkscape:cx="31.289303"
     inkscape:cy="46.696014"
     inkscape:window-x="176"
     inkscape:window-y="232"
     inkscape:current-layer="svg1454" />
  <defs
     id="defs1456" />
  <g
     transform="matrix(1.276702,0,0,1.276702,2.110529,1.456504)"
     id="layer1">
    <g
       transform="translate(-145.8515,-106.6405)"
       style="stroke:#000000;stroke-opacity:1"
       id="g1431"
       xml:space="preserve">
<g
   style="fill:none;stroke:#000000;stroke-width:0.79701102;stroke-linecap:butt;stroke-linejoin:miter;stroke-miterlimit:10;stroke-opacity:1"
   id="g1433">
	<path
   d="M 146.25,149.559 L 146.25,192.078 L 259.637,192.078 L 146.25,107.039 L 146.25,149.559 z "
   style="stroke:#000000;stroke-width:0.78326815;stroke-miterlimit:10;stroke-dasharray:none;stroke-opacity:1"
   id="path1435" />
</g>
<g
   style="fill:none;stroke:#000000;stroke-width:0.79701102;stroke-linecap:butt;stroke-linejoin:miter;stroke-miterlimit:10;stroke-opacity:1"
   id="g1437">
	
</g>
<g
   style="fill:#7f7f7f;fill-rule:evenodd;stroke:#000000;stroke-width:0;stroke-linecap:butt;stroke-linejoin:miter;stroke-miterlimit:10;stroke-opacity:1"
   id="g1441">
	<path
   d="M 163.24067,180.16352 C 163.24067,182.98248 161.89692,183.56743 161.12646,183.56743 C 160.82104,183.56743 160.14275,183.52851 159.82126,183.11125 L 159.89627,183.11125 C 159.98843,183.13421 160.44921,183.06434 160.44921,182.62312 C 160.44921,182.36259 160.25633,182.13199 159.92093,182.13199 C 159.59087,182.13199 159.38513,182.33464 159.38513,182.64708 C 159.38513,183.38776 160.02594,183.88686 161.1393,183.88686 C 162.74239,183.88686 164.29083,182.2997 164.29083,179.71034 C 164.29083,176.50206 162.85598,175.70249 161.72976,175.70249 C 160.31848,175.70249 159.07545,176.79754 159.07545,178.37372 C 159.07545,179.94891 160.26919,181.02498 161.54973,181.02498 C 162.50021,181.02498 162.98565,180.37714 163.24067,179.76923 L 163.24067,180.16352 z M 161.60009,180.7874 C 160.79641,180.7874 160.44921,180.17451 160.33134,179.94891 C 160.12667,179.49672 160.12667,178.92274 160.12667,178.38471 C 160.12667,177.71789 160.12667,177.14492 160.461,176.65779 C 160.69139,176.33436 161.03858,175.98699 161.72976,175.98699 C 162.45843,175.98699 162.83026,176.58392 162.95993,176.86043 C 163.21603,177.44538 163.21603,178.45857 163.21603,178.63825 C 163.21603,179.64046 162.72953,180.7874 161.60009,180.7874 z M 170.72029,179.82014 C 170.72029,178.8299 170.65815,177.86264 170.19737,176.95425 C 169.67015,175.96303 168.74966,175.70249 168.12172,175.70249 C 167.37591,175.70249 166.46828,176.04888 165.99463,177.0401 C 165.63458,177.78876 165.50492,178.52944 165.50492,179.82014 C 165.50492,180.97807 165.59708,181.84751 166.05786,182.69399 C 166.55613,183.60237 167.44341,183.88686 168.10886,183.88686 C 169.22223,183.88686 169.86303,183.26697 170.23487,182.57621 C 170.69565,181.6798 170.72029,180.5099 170.72029,179.82014 z M 168.10886,183.64929 C 167.69845,183.64929 166.86583,183.43467 166.62258,182.13199 C 166.48005,181.41828 166.48005,180.5099 166.48005,179.67539 C 166.48005,178.69714 166.48005,177.81172 166.6858,177.10998 C 166.90333,176.3104 167.55592,175.94007 168.10886,175.94007 C 168.59428,175.94007 169.33903,176.21258 169.58227,177.24275 C 169.74944,177.92053 169.74944,178.86484 169.74944,179.67539 C 169.74944,180.47496 169.74944,181.38333 169.60693,182.10904 C 169.36475,183.42269 168.55678,183.64929 168.10886,183.64929 z "
   style="fill:#000000;fill-opacity:1;stroke:none;stroke-opacity:0"
   id="path1443"
   inkscape:r_cx="true"
   inkscape:r_cy="true" />
</g>
<g
   style="fill:#7f7f7f;fill-rule:evenodd;stroke:#000000;stroke-width:0;stroke-linecap:butt;stroke-linejoin:miter;stroke-miterlimit:10;stroke-opacity:1"
   id="g1445">
	<path
   d="M 175.92825,175.669 C 175.92825,174.62282 175.04705,173.78976 173.95818,173.78976 C 172.86568,173.78976 171.9845,174.62282 171.9845,175.669 C 171.9845,176.71517 172.86568,177.5471 173.95818,177.5471 C 175.04705,177.5471 175.92825,176.71517 175.92825,175.669 z M 173.95818,177.12886 C 173.10459,177.12886 172.42508,176.47926 172.42508,175.669 C 172.42508,174.84961 173.10459,174.20458 173.95818,174.20458 C 174.80695,174.20458 175.48765,174.85873 175.48765,175.669 C 175.48765,176.48839 174.80695,177.12886 173.95818,177.12886 z "
   style="fill:#000000;fill-opacity:1;stroke:none;stroke-opacity:0"
   id="path1447"
   inkscape:r_cx="true"
   inkscape:r_cy="true" />
</g>
</g>  </g>
  <path
     style="fill:none;fill-opacity:0.75;fill-rule:evenodd;stroke:#000000;stroke-width:1px;stroke-linecap:butt;stroke-linejoin:miter;stroke-opacity:1"
     d="M 3.0160858,98.927614 L 15.683646,98.927614"
     id="path3597"
     inkscape:r_cx="true"
     inkscape:r_cy="true" />
  <path
     style="fill:none;fill-opacity:0.75;fill-rule:evenodd;stroke:#000000;stroke-width:1px;stroke-linecap:butt;stroke-linejoin:miter;stroke-opacity:1"
     d="M 15.683646,110.08713 L 15.683646,98.927614"
     id="path3599"
     inkscape:r_cx="true"
     inkscape:r_cy="true" />
</svg>
